<svg xmlns="http://www.w3.org/2000/svg" version="1.1" xmlns:xlink="http://www.w3.org/1999/xlink" xmlns:svgjs="http://svgjs.dev/svgjs" width="2000" height="444" viewBox="0 0 2000 444"><g transform="matrix(1,0,0,1,-1.2121212121212466,-0.696091782830905)"><svg viewBox="0 0 396 88" data-background-color="#fafafa" preserveAspectRatio="xMidYMid meet" height="444" width="2000" xmlns="http://www.w3.org/2000/svg" xmlns:xlink="http://www.w3.org/1999/xlink"><g id="tight-bounds" transform="matrix(1,0,0,1,0.2400000000000091,0.13796413713765787)"><svg viewBox="0 0 395.52 87.72407172572468" height="87.72407172572468" width="395.52"><g><svg viewBox="0 0 521.652696486399 115.69958172150727" height="87.72407172572468" width="395.52"><g transform="matrix(1,0,0,1,126.132696486399,35.75285011944209)"><svg viewBox="0 0 395.52 44.193881482623105" height="44.193881482623105" width="395.52"><g id="textblocktransform"><svg viewBox="0 0 395.52 44.193881482623105" height="44.193881482623105" width="395.52" id="textblock"><g><svg viewBox="0 0 395.52 44.193881482623105" height="44.193881482623105" width="395.52"><g transform="matrix(1,0,0,1,0,0)"><svg width="395.52" viewBox="2.27 -34.91 316.8 35.4" height="44.193881482623105" data-palette-color="#130912"><path d="M31.05-9.5L31.05-9.5Q31.05-4.74 27.33-2.12 23.61 0.49 16.85 0.49L16.85 0.49Q4.27 0.49 2.27-8.25L2.27-8.25 6.79-9.16Q7.57-6.05 10.11-4.6 12.65-3.15 17.02-3.15L17.02-3.15Q21.53-3.15 23.99-4.7 26.44-6.25 26.44-9.25L26.44-9.25Q26.44-10.94 25.67-11.99 24.9-13.04 23.51-13.72L23.51-13.72Q22.12-14.4 20.19-14.87 18.26-15.33 15.92-15.87L15.92-15.87Q13.21-16.48 11.39-17.07 9.57-17.65 8.4-18.3 7.23-18.95 6.4-19.68L6.4-19.68Q5.18-20.8 4.53-22.29 3.88-23.78 3.88-25.71L3.88-25.71Q3.88-30.13 7.26-32.52 10.64-34.91 16.94-34.91L16.94-34.91Q22.8-34.91 25.9-33.12 29-31.32 30.25-27L30.25-27 25.66-26.2Q24.9-28.93 22.78-30.16 20.65-31.4 16.89-31.4L16.89-31.4Q12.77-31.4 10.6-30.03 8.42-28.66 8.42-25.95L8.42-25.95Q8.42-24.37 9.27-23.33 10.11-22.29 11.69-21.58L11.69-21.58Q13.18-20.87 18.02-19.8L18.02-19.8Q20-19.34 21.92-18.84 23.85-18.33 25.56-17.58L25.56-17.58Q26.56-17.16 27.48-16.56 28.39-15.97 29.08-15.19L29.08-15.19Q30-14.16 30.53-12.77 31.05-11.38 31.05-9.5ZM41.6-22.85L41.6-22.85 41.6 0 37.45 0 37.45-34.4 42.87-34.4 61.47-4.91Q61.18-9.72 61.18-11.84L61.18-11.84 61.18-34.4 65.38-34.4 65.38 0 59.76 0 41.35-29.3Q41.4-27.69 41.5-26.07 41.6-24.46 41.6-22.85ZM94.01-10.06L78.34-10.06 74.38 0 69.55 0 83.59-34.4 88.89-34.4 102.7 0 97.94 0 94.01-10.06ZM86.18-30.88L86.18-30.88Q85.76-29.52 85.19-27.84 84.61-26.17 84.13-24.9L84.13-24.9 79.76-13.7 92.62-13.7 88.2-25.05Q87.86-25.9 87.3-27.47 86.74-29.03 86.18-30.88ZM133.51-24.05L133.51-24.05Q133.51-20.8 132.07-18.41 130.63-16.02 127.98-14.71 125.33-13.4 121.67-13.4L121.67-13.4 111.56-13.4 111.56 0 106.9 0 106.9-34.4 121.38-34.4Q127.17-34.4 130.34-31.69 133.51-28.98 133.51-24.05ZM128.83-24L128.83-24Q128.83-30.66 120.82-30.66L120.82-30.66 111.56-30.66 111.56-17.09 121.01-17.09Q124.92-17.09 126.87-18.81 128.83-20.53 128.83-24ZM157.38-22.85L157.38-22.85 157.38 0 153.23 0 153.23-34.4 158.65-34.4 177.26-4.91Q176.97-9.72 176.97-11.84L176.97-11.84 176.97-34.4 181.16-34.4 181.16 0 175.55 0 157.14-29.3Q157.19-27.69 157.29-26.07 157.38-24.46 157.38-22.85ZM221.74-17.36L221.74-17.36Q221.74-11.84 219.65-7.84 217.56-3.83 213.73-1.67 209.9 0.49 204.65 0.49L204.65 0.49Q199.37 0.49 195.55-1.66 191.73-3.81 189.67-7.81 187.61-11.82 187.61-17.36L187.61-17.36Q187.61-22.88 189.65-26.79 191.68-30.71 195.51-32.81 199.33-34.91 204.7-34.91L204.7-34.91Q209.97-34.91 213.79-32.84 217.61-30.76 219.67-26.84 221.74-22.92 221.74-17.36ZM216.98-17.36L216.98-17.36Q216.98-23.78 213.77-27.44 210.56-31.1 204.7-31.1L204.7-31.1Q198.79-31.1 195.57-27.49 192.34-23.88 192.34-17.36L192.34-17.36Q192.34-13.06 193.81-9.9 195.27-6.74 198.03-5.02 200.79-3.3 204.65-3.3L204.65-3.3Q210.61-3.3 213.79-6.97 216.98-10.64 216.98-17.36ZM253.52-30.59L241.71-30.59 241.71 0 237.07 0 237.07-30.59 225.25-30.59 225.25-34.4 253.52-34.4 253.52-30.59ZM263.43-3.81L285.87-3.81 285.87 0 258.77 0 258.77-34.4 284.87-34.4 284.87-30.59 263.43-30.59 263.43-19.56 283.4-19.56 283.4-15.8 263.43-15.8 263.43-3.81ZM319.07-9.5L319.07-9.5Q319.07-4.74 315.35-2.12 311.62 0.49 304.86 0.49L304.86 0.49Q292.29 0.49 290.29-8.25L290.29-8.25 294.8-9.16Q295.58-6.05 298.12-4.6 300.66-3.15 305.03-3.15L305.03-3.15Q309.55-3.15 312-4.7 314.46-6.25 314.46-9.25L314.46-9.25Q314.46-10.94 313.69-11.99 312.92-13.04 311.53-13.72L311.53-13.72Q310.13-14.4 308.21-14.87 306.28-15.33 303.93-15.87L303.93-15.87Q301.22-16.48 299.4-17.07 297.58-17.65 296.41-18.3 295.24-18.95 294.41-19.68L294.41-19.68Q293.19-20.8 292.54-22.29 291.9-23.78 291.9-25.71L291.9-25.71Q291.9-30.13 295.28-32.52 298.66-34.91 304.96-34.91L304.96-34.91Q310.82-34.91 313.92-33.12 317.02-31.32 318.26-27L318.26-27 313.67-26.2Q312.92-28.93 310.79-30.16 308.67-31.4 304.91-31.4L304.91-31.4Q300.78-31.4 298.61-30.03 296.44-28.66 296.44-25.95L296.44-25.95Q296.44-24.37 297.28-23.33 298.12-22.29 299.71-21.58L299.71-21.58Q301.2-20.87 306.03-19.8L306.03-19.8Q308.01-19.34 309.94-18.84 311.87-18.33 313.58-17.58L313.58-17.58Q314.58-17.16 315.49-16.56 316.41-15.97 317.09-15.19L317.09-15.19Q318.02-14.16 318.54-12.77 319.07-11.38 319.07-9.5Z" opacity="1" transform="matrix(1,0,0,1,0,0)" fill="#130912" class="wordmark-text-0" data-fill-palette-color="primary" id="text-0"></path></svg></g></svg></g></svg></g></svg></g><g><svg viewBox="0 0 115.69958172150727 115.69958172150727" height="115.69958172150727" width="115.69958172150727"><g><svg xmlns="http://www.w3.org/2000/svg" xmlns:xlink="http://www.w3.org/1999/xlink" version="1.1" x="0" y="0" viewBox="5 5 90 90" enable-background="new 0 0 100 100" xml:space="preserve" height="115.69958172150727" width="115.69958172150727" class="icon-icon-0" data-fill-palette-color="accent" id="icon-0"><path d="M94.527 5H88.698L88.682 5.938C88.66 7.336 87.666 8.28 86.266 8.28S83.872 7.351 83.85 5.954L83.833 5H79.585L79.569 5.938C79.547 7.335 78.553 8.28 77.153 8.28 75.752 8.28 74.759 7.352 74.736 5.954L74.72 5H70.472L70.456 5.938C70.433 7.336 69.44 8.28 68.039 8.28S65.645 7.352 65.623 5.954L65.607 5H61.358L61.342 5.938C61.32 7.336 60.326 8.28 58.926 8.28 57.525 8.28 56.532 7.351 56.509 5.954L56.493 5H52.245L52.229 5.938C52.207 7.335 51.213 8.28 49.812 8.28S47.418 7.352 47.395 5.954L47.38 5H43.132L43.116 5.938C43.094 7.335 42.1 8.28 40.7 8.28 39.299 8.28 38.306 7.352 38.283 5.954L38.267 5H34.018L34.002 5.938C33.98 7.336 32.986 8.28 31.585 8.28S29.191 7.351 29.168 5.954L29.153 5H24.905L24.889 5.938C24.867 7.335 23.873 8.28 22.472 8.28S20.078 7.352 20.056 5.954L20.04 5H15.792L15.776 5.938C15.753 7.335 14.76 8.28 13.359 8.28S10.965 7.352 10.942 5.954L10.926 5H5V95H95V5zM87 74H13V73H87zM87 65H13V64H87zM87 56H13V55H87zM87 46H13V45H87zM87 37H13V36H87zM87 28H13V27H87z" fill="#e77917" data-fill-palette-color="accent"></path></svg></g></svg></g></svg></g><defs></defs></svg><rect width="395.52" height="87.72407172572468" fill="none" stroke="none" visibility="hidden"></rect></g></svg></g></svg>